<svg width="2048" height="2048" viewBox="0 0 2048 2048" xmlns="http://www.w3.org/2000/svg"><g stroke="rgb(51, 0, 51)" stroke-width="0.1" stroke-linecap="round" stroke-linejoin="round" fill="transparent"><path d="M1008,977 L969,948 L984,995 L1024,1024 Z M1008,977 L1024,931 L1039,977 L1024,1024 Z M1063,995 L1078,948 L1039,977 L1024,1024 Z M1063,995 L1112,995 L1072,1024 L1024,1024 Z M1063,1052 L1024,1024 L1039,1070 L1078,1099 Z M1063,1052 L1112,1052 L1072,1024 L1024,1024 Z M1008,1070 L1024,1024 L1039,1070 L1024,1116 Z M1008,1070 L1024,1024 L984,1052 L969,1099 Z M975,1024 L1024,1024 L984,1052 L935,1052 Z M975,1024 L1024,1024 L984,995 L935,995 Z M1166,1070 L1215,1070 L1254,1099 L1206,1099 Z M1166,977 L1215,977 L1254,948 L1206,948 Z M1200,1024 L1215,977 L1230,1024 L1215,1070 Z M1254,948 L1294,977 L1309,1024 L1270,995 Z M1239,902 L1254,856 L1270,902 L1254,948 Z M1191,902 L1151,873 L1166,920 L1206,948 Z M1112,902 L1127,856 L1166,827 L1151,873 Z M1024,873 L1039,827 L1024,781 L1008,827 Z M1078,856 L1127,856 L1087,827 L1039,827 Z M1166,827 L1127,798 L1112,752 L1151,781 Z M1024,781 L1072,781 L1112,752 L1063,752 Z M1024,723 L1039,677 L1024,631 L1008,677 Z M1078,706 L1039,677 L1024,631 L1063,659 Z M1063,659 L1112,659 L1072,631 L1024,631 Z M1024,631 L1039,584 L1023,538 L1008,584 Z M1039,584 L1087,584 L1127,556 L1078,556 Z M975,631 L935,602 L920,556 L960,584 Z M1072,631 L1087,584 L1127,556 L1112,602 Z M1112,509 L1127,463 L1166,434 L1151,481 Z M1166,584 L1127,556 L1112,509 L1151,538 Z M1166,584 L1215,584 L1254,556 L1206,556 Z M1023,481 L1039,434 L1023,388 L1008,434 Z M1078,463 L1039,434 L1023,388 L1063,416 Z M1063,416 L1112,416 L1072,388 L1023,388 Z M1206,463 L1254,463 L1215,434 L1166,434 Z M1215,434 L1230,388 L1215,341 L1200,388 Z M1215,434 L1230,388 L1270,359 L1254,405 Z M1254,313 L1270,266 L1254,220 L1239,266 Z M1254,313 L1270,266 L1309,238 L1294,284 Z M1309,388 L1270,359 L1254,313 L1294,341 Z M1294,341 L1343,341 L1382,313 L1333,313 Z M1397,359 L1412,313 L1397,266 L1382,313 Z M1397,509 L1358,481 L1343,434 L1382,463 Z M1397,509 L1412,463 L1397,416 L1382,463 Z M1397,509 L1412,463 L1452,434 L1437,481 Z M1397,509 L1446,509 L1485,481 L1437,481 Z M1437,538 L1485,538 L1446,509 L1397,509 Z M1348,509 L1397,509 L1358,481 L1309,481 Z M1540,556 L1589,556 L1628,584 L1579,584 Z M1540,463 L1500,434 L1485,388 L1525,416 Z M1540,463 L1589,463 L1628,434 L1579,434 Z M1589,556 L1604,509 L1589,463 L1574,509 Z M1604,509 L1643,538 L1628,491 L1589,463 Z M1628,434 L1643,388 L1628,341 L1613,388 Z M1628,434 L1677,434 L1716,463 L1668,463 Z M1716,463 L1731,416 L1771,388 L1756,434 Z M1731,359 L1771,388 L1756,341 L1716,313 Z M1643,388 L1692,388 L1731,359 L1683,359 Z M1500,341 L1461,313 L1446,266 L1485,295 Z M1485,388 L1500,341 L1540,313 L1525,359 Z M1564,388 L1613,388 L1574,359 L1525,359 Z M1437,388 L1485,388 L1446,359 L1397,359 Z M1397,266 L1358,238 L1343,191 L1382,220 Z M1397,266 L1446,266 L1485,238 L1437,238 Z M1437,238 L1452,191 L1437,145 L1422,191 Z M1333,313 L1382,313 L1343,284 L1294,284 Z M1191,266 L1239,266 L1200,238 L1151,238 Z M1206,313 L1166,284 L1151,238 L1191,266 Z M1112,266 L1127,220 L1166,191 L1151,238 Z M1166,191 L1127,163 L1112,116 L1151,145 Z M1166,191 L1215,191 L1254,163 L1206,163 Z M1151,145 L1166,99 L1206,70 L1191,116 Z M1039,191 L1087,191 L1127,163 L1078,163 Z M1023,238 L1039,191 L1023,145 L1008,191 Z M1063,266 L1112,266 L1072,238 L1023,238 Z M960,191 L1008,191 L969,163 L920,163 Z M935,266 L896,238 L881,191 L920,220 Z M935,266 L984,266 L1023,238 L975,238 Z M881,341 L832,341 L793,313 L841,313 Z M1023,388 L984,359 L969,313 L1008,341 Z M1023,388 L1039,341 L1023,295 L1008,341 Z M1023,388 L1039,341 L1078,313 L1063,359 Z M1023,388 L1072,388 L1112,359 L1063,359 Z M1166,341 L1215,341 L1254,313 L1206,313 Z M975,388 L1023,388 L984,359 L935,359 Z M935,416 L984,416 L1023,388 L975,388 Z M935,509 L896,481 L881,434 L920,463 Z M969,463 L984,416 L1023,388 L1008,434 Z M881,584 L896,538 L935,509 L920,556 Z M881,584 L832,584 L793,556 L841,556 Z M960,584 L1008,584 L969,556 L920,556 Z M793,556 L808,509 L793,463 L777,509 Z M817,631 L832,584 L793,613 L777,659 Z M832,677 L847,631 L832,584 L817,631 Z M793,706 L753,677 L738,631 L777,659 Z M753,677 L704,677 L665,706 L714,706 Z M650,659 L601,659 L562,631 L610,631 Z M650,602 L665,556 L650,509 L635,556 Z M704,584 L665,556 L650,509 L689,538 Z M650,509 L610,481 L595,434 L635,463 Z M650,509 L665,463 L650,416 L635,463 Z M650,509 L601,509 L562,538 L610,538 Z M650,509 L601,509 L562,481 L610,481 Z M689,481 L704,434 L665,463 L650,509 Z M635,556 L650,509 L610,538 L595,584 Z M738,481 L689,481 L650,509 L699,509 Z M738,538 L689,538 L650,509 L699,509 Z M832,434 L793,405 L777,359 L817,388 Z M832,434 L847,388 L832,341 L817,388 Z M841,463 L793,463 L832,434 L881,434 Z M738,388 L753,341 L793,313 L777,359 Z M650,359 L665,313 L650,266 L635,313 Z M650,359 L601,359 L562,388 L610,388 Z M753,341 L704,341 L665,313 L714,313 Z M793,313 L753,284 L738,238 L777,266 Z M793,313 L808,266 L793,220 L777,266 Z M714,313 L665,313 L704,284 L753,284 Z M650,266 L665,220 L704,191 L689,238 Z M650,266 L601,266 L562,238 L610,238 Z M704,191 L665,163 L650,116 L689,145 Z M738,145 L753,99 L793,70 L777,116 Z M738,145 L689,145 L650,116 L699,116 Z M793,163 L808,116 L793,70 L777,116 Z M881,191 L896,145 L935,116 L920,163 Z M881,191 L832,191 L793,163 L841,163 Z M896,145 L856,116 L841,70 L881,99 Z M841,70 L793,70 L832,41 L881,41 Z M610,145 L562,145 L601,116 L650,116 Z M610,238 L625,191 L610,145 L595,191 Z M522,359 L473,359 L434,388 L483,388 Z M562,388 L522,359 L507,313 L547,341 Z M586,313 L601,266 L562,295 L547,341 Z M547,434 L562,388 L522,416 L507,463 Z M507,463 L458,463 L419,434 L468,434 Z M419,434 L434,388 L419,341 L404,388 Z M419,434 L370,434 L331,463 L379,463 Z M443,509 L458,463 L419,491 L404,538 Z M458,556 L473,509 L458,463 L443,509 Z M419,584 L379,556 L364,509 L404,538 Z M419,584 L370,584 L331,556 L379,556 Z M276,538 L227,538 L188,509 L237,509 Z M276,481 L291,434 L276,388 L261,434 Z M276,481 L227,481 L188,509 L237,509 Z M331,463 L291,434 L276,388 L316,416 Z M316,359 L331,313 L291,341 L276,388 Z M173,556 L188,509 L149,538 L133,584 Z M227,631 L188,602 L173,556 L212,584 Z M276,631 L291,584 L276,538 L261,584 Z M276,631 L227,631 L188,659 L237,659 Z M355,631 L370,584 L331,613 L316,659 Z M404,631 L355,631 L316,659 L364,659 Z M419,677 L434,631 L419,584 L404,631 Z M331,706 L291,677 L276,631 L316,659 Z M316,752 L331,706 L291,734 L276,781 Z M276,781 L227,781 L188,752 L237,752 Z M237,752 L252,706 L237,659 L222,706 Z M212,827 L227,781 L188,809 L173,856 Z M188,902 L149,873 L133,827 L173,856 Z M188,902 L173,948 L133,977 L149,931 Z M149,873 L100,873 L60,902 L109,902 Z M60,902 L45,948 L30,902 L45,856 Z M133,977 L85,977 L45,948 L94,948 Z M252,948 L237,995 L222,948 L237,902 Z M276,873 L291,827 L276,781 L261,827 Z M276,873 L227,873 L188,902 L237,902 Z M291,977 L252,948 L237,902 L276,931 Z M331,948 L316,995 L276,1024 L291,977 Z M404,873 L419,827 L379,856 L364,902 Z M419,827 L379,798 L364,752 L404,781 Z M419,827 L434,781 L419,734 L404,781 Z M419,827 L370,827 L331,856 L379,856 Z M419,827 L370,827 L331,798 L379,798 Z M458,798 L473,752 L434,781 L419,827 Z M507,798 L458,798 L419,827 L468,827 Z M507,856 L458,856 L419,827 L468,827 Z M562,781 L522,752 L507,706 L547,734 Z M610,873 L625,827 L610,781 L595,827 Z M650,752 L665,706 L650,659 L635,706 Z M650,752 L601,752 L562,781 L610,781 Z M665,856 L625,827 L610,781 L650,809 Z M777,752 L793,706 L753,734 L738,781 Z M753,734 L704,734 L665,706 L714,706 Z M793,798 L808,752 L793,706 L777,752 Z M847,781 L808,752 L793,706 L832,734 Z M881,734 L832,734 L793,706 L841,706 Z M881,827 L832,827 L793,856 L841,856 Z M920,798 L935,752 L896,781 L881,827 Z M935,902 L896,873 L881,827 L920,856 Z M960,827 L1008,827 L969,856 L920,856 Z M881,977 L832,977 L793,948 L841,948 Z M881,920 L896,873 L856,902 L841,948 Z M793,948 L808,902 L793,856 L777,902 Z M777,995 L793,948 L753,977 L738,1024 Z M817,1024 L832,977 L847,1024 L832,1070 Z M777,1052 L738,1024 L753,1070 L793,1099 Z M793,1099 L777,1145 L793,1191 L808,1145 Z M881,1070 L832,1070 L793,1099 L841,1099 Z M881,1127 L841,1099 L856,1145 L896,1174 Z M935,1145 L920,1191 L881,1220 L896,1174 Z M1024,1174 L1008,1220 L1024,1266 L1039,1220 Z M881,1220 L832,1220 L793,1191 L841,1191 Z M960,1220 L1008,1220 L969,1191 L920,1191 Z M975,1266 L1024,1266 L984,1295 L935,1295 Z M920,1249 L881,1220 L896,1266 L935,1295 Z M1024,1266 L1072,1266 L1112,1295 L1063,1295 Z M1024,1324 L1008,1370 L1024,1416 L1039,1370 Z M969,1341 L1008,1370 L1024,1416 L984,1388 Z M1024,1416 L1008,1463 L1024,1509 L1039,1463 Z M1039,1463 L1087,1463 L1127,1491 L1078,1491 Z M1063,1388 L1112,1388 L1072,1416 L1024,1416 Z M975,1416 L960,1463 L920,1491 L935,1445 Z M1072,1416 L1112,1445 L1127,1491 L1087,1463 Z M1166,1463 L1151,1509 L1112,1538 L1127,1491 Z M1166,1463 L1215,1463 L1254,1491 L1206,1491 Z M1215,1370 L1200,1416 L1215,1463 L1230,1416 Z M1254,1341 L1294,1370 L1309,1416 L1270,1388 Z M1270,1388 L1254,1434 L1215,1463 L1230,1416 Z M1294,1313 L1343,1313 L1382,1341 L1333,1341 Z M1206,1341 L1254,1341 L1215,1370 L1166,1370 Z M1166,1313 L1215,1313 L1254,1341 L1206,1341 Z M1078,1341 L1063,1388 L1024,1416 L1039,1370 Z M1166,1220 L1151,1266 L1112,1295 L1127,1249 Z M1078,1191 L1127,1191 L1087,1220 L1039,1220 Z M1112,1145 L1151,1174 L1166,1220 L1127,1191 Z M1191,1145 L1206,1099 L1166,1127 L1151,1174 Z M1254,1099 L1270,1052 L1309,1024 L1294,1070 Z M1239,1145 L1254,1099 L1270,1145 L1254,1191 Z M1343,977 L1358,931 L1397,902 L1382,948 Z M1343,1070 L1382,1099 L1397,1145 L1358,1116 Z M1382,1099 L1397,1052 L1412,1099 L1397,1145 Z M1397,1145 L1446,1145 L1485,1174 L1437,1174 Z M1382,1191 L1422,1220 L1437,1266 L1397,1238 Z M1412,1099 L1461,1099 L1500,1070 L1452,1070 Z M1446,1145 L1461,1099 L1500,1070 L1485,1116 Z M1485,1024 L1525,1052 L1540,1099 L1500,1070 Z M1485,1024 L1500,977 L1540,948 L1525,995 Z M1540,1099 L1589,1099 L1628,1070 L1579,1070 Z M1412,948 L1461,948 L1500,977 L1452,977 Z M1540,948 L1589,948 L1628,977 L1579,977 Z M1446,902 L1485,931 L1500,977 L1461,948 Z M1397,902 L1446,902 L1485,873 L1437,873 Z M1382,856 L1397,809 L1437,781 L1422,827 Z M1382,948 L1397,902 L1412,948 L1397,995 Z M1309,931 L1358,931 L1397,902 L1348,902 Z M1309,873 L1358,873 L1397,902 L1348,902 Z M1254,798 L1270,752 L1254,706 L1239,752 Z M1309,781 L1270,752 L1254,706 L1294,734 Z M1343,827 L1382,856 L1397,902 L1358,873 Z M1397,752 L1412,706 L1397,659 L1382,706 Z M1397,752 L1446,752 L1485,781 L1437,781 Z M1422,827 L1437,781 L1452,827 L1437,873 Z M1485,781 L1500,734 L1540,706 L1525,752 Z M1500,677 L1540,706 L1525,659 L1485,631 Z M1397,659 L1446,659 L1485,631 L1437,631 Z M1333,706 L1382,706 L1343,677 L1294,677 Z M1294,734 L1343,734 L1382,706 L1333,706 Z M1254,706 L1270,659 L1309,631 L1294,677 Z M1270,659 L1230,631 L1215,584 L1254,613 Z M1215,677 L1230,631 L1215,584 L1200,631 Z M1206,706 L1254,706 L1215,677 L1166,677 Z M1166,734 L1215,734 L1254,706 L1206,706 Z M1200,781 L1215,734 L1254,706 L1239,752 Z M1254,556 L1270,509 L1254,463 L1239,509 Z M1309,538 L1358,538 L1397,509 L1348,509 Z M1343,584 L1358,538 L1397,509 L1382,556 Z M1397,602 L1412,556 L1397,509 L1382,556 Z M1452,584 L1412,556 L1397,509 L1437,538 Z M1525,659 L1540,613 L1579,584 L1564,631 Z M1525,659 L1574,659 L1613,631 L1564,631 Z M1628,677 L1643,631 L1628,584 L1613,631 Z M1628,584 L1643,538 L1683,509 L1668,556 Z M1628,584 L1677,584 L1716,556 L1668,556 Z M1643,631 L1692,631 L1731,659 L1683,659 Z M1692,631 L1731,659 L1716,613 L1677,584 Z M1771,631 L1786,584 L1771,538 L1756,584 Z M1771,631 L1820,631 L1859,659 L1810,659 Z M1771,538 L1820,538 L1859,509 L1810,509 Z M1874,556 L1914,584 L1898,538 L1859,509 Z M1771,481 L1786,434 L1771,388 L1756,434 Z M1771,481 L1820,481 L1859,509 L1810,509 Z M1820,631 L1835,584 L1874,556 L1859,602 Z M1795,706 L1810,659 L1825,706 L1810,752 Z M1716,706 L1756,734 L1771,781 L1731,752 Z M1716,706 L1731,659 L1771,631 L1756,677 Z M1613,781 L1628,734 L1643,781 L1628,827 Z M1628,827 L1668,856 L1683,902 L1643,873 Z M1628,827 L1643,781 L1683,752 L1668,798 Z M1628,827 L1677,827 L1716,798 L1668,798 Z M1628,827 L1677,827 L1716,856 L1668,856 Z M1574,752 L1613,781 L1628,827 L1589,798 Z M1540,798 L1589,798 L1628,827 L1579,827 Z M1540,856 L1589,856 L1628,827 L1579,827 Z M1574,902 L1589,856 L1628,827 L1613,873 Z M1613,873 L1628,827 L1643,873 L1628,920 Z M1771,873 L1820,873 L1859,902 L1810,902 Z M1716,948 L1756,977 L1771,1023 L1731,995 Z M1756,977 L1771,931 L1810,902 L1795,948 Z M1771,1023 L1820,1023 L1859,995 L1810,995 Z M1771,1023 L1820,1023 L1859,1052 L1810,1052 Z M1795,948 L1810,902 L1825,948 L1810,995 Z M1859,902 L1898,931 L1914,977 L1874,948 Z M1859,902 L1874,856 L1914,827 L1898,873 Z M1898,873 L1947,873 L1987,902 L1938,902 Z M1820,781 L1859,809 L1874,856 L1835,827 Z M1771,781 L1820,781 L1859,752 L1810,752 Z M1756,827 L1771,781 L1786,827 L1771,873 Z M1987,902 L2002,856 L2017,902 L2002,948 Z M1914,977 L1962,977 L2002,948 L1953,948 Z M1947,1024 L1987,1052 L2002,1099 L1962,1070 Z M1947,1024 L1962,977 L2002,948 L1987,995 Z M1987,1145 L2002,1099 L2017,1145 L2002,1191 Z M1914,1070 L1962,1070 L2002,1099 L1953,1099 Z M1898,1174 L1947,1174 L1987,1145 L1938,1145 Z M1859,1145 L1898,1174 L1914,1220 L1874,1191 Z M1859,1145 L1874,1099 L1914,1070 L1898,1116 Z M1795,1099 L1810,1052 L1825,1099 L1810,1145 Z M1771,1174 L1820,1174 L1859,1145 L1810,1145 Z M1756,1070 L1795,1099 L1810,1145 L1771,1116 Z M1716,1099 L1731,1052 L1771,1023 L1756,1070 Z M1628,1220 L1668,1249 L1683,1295 L1643,1266 Z M1628,1220 L1643,1174 L1683,1145 L1668,1191 Z M1628,1220 L1677,1220 L1716,1191 L1668,1191 Z M1628,1220 L1677,1220 L1716,1249 L1668,1249 Z M1613,1174 L1628,1127 L1643,1174 L1628,1220 Z M1613,1266 L1628,1220 L1643,1266 L1628,1313 Z M1756,1220 L1771,1174 L1786,1220 L1771,1266 Z M1771,1266 L1820,1266 L1859,1295 L1810,1295 Z M1820,1266 L1835,1220 L1874,1191 L1859,1238 Z M1820,1416 L1859,1445 L1874,1491 L1835,1463 Z M1795,1341 L1810,1295 L1825,1341 L1810,1388 Z M1771,1416 L1756,1463 L1771,1509 L1786,1463 Z M1771,1416 L1820,1416 L1859,1388 L1810,1388 Z M1771,1509 L1820,1509 L1859,1538 L1810,1538 Z M1692,1416 L1677,1463 L1716,1434 L1731,1388 Z M1628,1463 L1668,1491 L1683,1538 L1643,1509 Z M1628,1463 L1677,1463 L1716,1491 L1668,1491 Z M1589,1491 L1574,1538 L1589,1584 L1604,1538 Z M1643,1416 L1692,1416 L1731,1388 L1683,1388 Z M1540,1491 L1589,1491 L1628,1463 L1579,1463 Z M1525,1388 L1564,1416 L1579,1463 L1540,1434 Z M1525,1388 L1574,1388 L1613,1416 L1564,1416 Z M1452,1463 L1437,1509 L1397,1538 L1412,1491 Z M1437,1509 L1485,1509 L1446,1538 L1397,1538 Z M1397,1538 L1437,1566 L1452,1613 L1412,1584 Z M1397,1538 L1382,1584 L1397,1631 L1412,1584 Z M1397,1538 L1382,1584 L1343,1613 L1358,1566 Z M1397,1538 L1446,1538 L1485,1566 L1437,1566 Z M1348,1538 L1397,1538 L1358,1566 L1309,1566 Z M1540,1584 L1525,1631 L1485,1659 L1500,1613 Z M1540,1584 L1589,1584 L1628,1613 L1579,1613 Z M1628,1613 L1613,1659 L1628,1706 L1643,1659 Z M1628,1613 L1677,1613 L1716,1584 L1668,1584 Z M1604,1538 L1589,1584 L1628,1556 L1643,1509 Z M1643,1659 L1692,1659 L1731,1688 L1683,1688 Z M1716,1584 L1756,1613 L1771,1659 L1731,1631 Z M1771,1566 L1756,1613 L1771,1659 L1786,1613 Z M1771,1566 L1820,1566 L1859,1538 L1810,1538 Z M1874,1491 L1859,1538 L1898,1509 L1914,1463 Z M1731,1688 L1716,1734 L1756,1706 L1771,1659 Z M1500,1706 L1485,1752 L1446,1781 L1461,1734 Z M1397,1781 L1382,1827 L1343,1856 L1358,1809 Z M1397,1781 L1446,1781 L1485,1809 L1437,1809 Z M1437,1809 L1422,1856 L1437,1902 L1452,1856 Z M1397,1688 L1382,1734 L1397,1781 L1412,1734 Z M1437,1659 L1485,1659 L1446,1688 L1397,1688 Z M1485,1659 L1525,1688 L1540,1734 L1500,1706 Z M1564,1659 L1613,1659 L1574,1688 L1525,1688 Z M1309,1659 L1294,1706 L1254,1734 L1270,1688 Z M1294,1706 L1343,1706 L1382,1734 L1333,1734 Z M1254,1734 L1294,1763 L1309,1809 L1270,1781 Z M1254,1734 L1239,1781 L1254,1827 L1270,1781 Z M1333,1734 L1382,1734 L1343,1763 L1294,1763 Z M1309,1902 L1294,1948 L1254,1977 L1270,1931 Z M1309,1902 L1358,1902 L1397,1931 L1348,1931 Z M1254,1884 L1239,1931 L1254,1977 L1270,1931 Z M1343,1856 L1382,1884 L1397,1931 L1358,1902 Z M1437,1902 L1485,1902 L1446,1931 L1397,1931 Z M1206,1977 L1254,1977 L1215,2006 L1166,2006 Z M1151,1902 L1191,1931 L1206,1977 L1166,1948 Z M896,1902 L881,1948 L841,1977 L856,1931 Z M881,1856 L920,1884 L935,1931 L896,1902 Z M881,1856 L832,1856 L793,1884 L841,1884 Z M841,1977 L793,1977 L832,2006 L881,2006 Z M793,1884 L777,1931 L793,1977 L808,1931 Z M738,1902 L777,1931 L793,1977 L753,1948 Z M738,1902 L689,1902 L650,1931 L699,1931 Z M610,1902 L562,1902 L601,1931 L650,1931 Z M610,1809 L595,1856 L610,1902 L625,1856 Z M650,1781 L689,1809 L704,1856 L665,1827 Z M650,1781 L601,1781 L562,1809 L610,1809 Z M586,1734 L547,1706 L562,1752 L601,1781 Z M316,1688 L276,1659 L291,1706 L331,1734 Z M276,1566 L261,1613 L276,1659 L291,1613 Z M276,1566 L227,1566 L188,1538 L237,1538 Z M276,1509 L227,1509 L188,1538 L237,1538 Z M173,1491 L133,1463 L149,1509 L188,1538 Z M227,1416 L212,1463 L173,1491 L188,1445 Z M276,1416 L261,1463 L276,1509 L291,1463 Z M276,1416 L227,1416 L188,1388 L237,1388 Z M331,1341 L316,1388 L276,1416 L291,1370 Z M237,1295 L222,1341 L237,1388 L252,1341 Z M276,1266 L227,1266 L188,1295 L237,1295 Z M316,1295 L276,1266 L291,1313 L331,1341 Z M212,1220 L173,1191 L188,1238 L227,1266 Z M60,1145 L45,1191 L30,1145 L45,1099 Z M149,1174 L100,1174 L60,1145 L109,1145 Z M188,1145 L149,1116 L133,1070 L173,1099 Z M188,1145 L173,1191 L133,1220 L149,1174 Z M133,1070 L85,1070 L45,1099 L94,1099 Z M100,1024 L60,995 L45,948 L85,977 Z M100,1024 L85,1070 L45,1099 L60,1052 Z M252,1099 L237,1145 L222,1099 L237,1052 Z M276,1024 L227,1024 L188,1052 L237,1052 Z M276,1024 L227,1024 L188,995 L237,995 Z M291,1070 L276,1116 L237,1145 L252,1099 Z M331,1099 L291,1070 L276,1024 L316,1052 Z M404,1024 L355,1024 L316,1052 L364,1052 Z M404,1024 L355,1024 L316,995 L364,995 Z M434,1024 L419,1070 L404,1024 L419,977 Z M507,948 L458,948 L419,977 L468,977 Z M562,1024 L522,995 L507,948 L547,977 Z M562,1024 L547,1070 L507,1099 L522,1052 Z M586,948 L601,902 L562,931 L547,977 Z M635,948 L586,948 L547,977 L595,977 Z M650,995 L665,948 L650,902 L635,948 Z M650,902 L601,902 L562,873 L610,873 Z M689,873 L704,827 L665,856 L650,902 Z M738,873 L689,873 L650,902 L699,902 Z M738,931 L689,931 L650,902 L699,902 Z M704,977 L665,948 L650,902 L689,931 Z M704,1070 L689,1116 L650,1145 L665,1099 Z M650,1052 L635,1099 L650,1145 L665,1099 Z M635,1099 L586,1099 L547,1070 L595,1070 Z M650,1145 L601,1145 L562,1174 L610,1174 Z M586,1099 L547,1070 L562,1116 L601,1145 Z M507,1099 L458,1099 L419,1070 L468,1070 Z M473,1145 L458,1191 L419,1220 L434,1174 Z M419,1127 L404,1174 L419,1220 L434,1174 Z M404,1174 L364,1145 L379,1191 L419,1220 Z M419,1220 L404,1266 L419,1313 L434,1266 Z M419,1220 L404,1266 L364,1295 L379,1249 Z M419,1220 L370,1220 L331,1249 L379,1249 Z M419,1220 L370,1220 L331,1191 L379,1191 Z M276,1174 L261,1220 L276,1266 L291,1220 Z M276,1174 L227,1174 L188,1145 L237,1145 Z M458,1249 L419,1220 L434,1266 L473,1295 Z M507,1249 L458,1249 L419,1220 L468,1220 Z M562,1266 L547,1313 L507,1341 L522,1295 Z M522,1388 L507,1434 L468,1463 L483,1416 Z M522,1388 L473,1388 L434,1416 L483,1416 Z M547,1370 L507,1341 L522,1388 L562,1416 Z M650,1388 L601,1388 L562,1416 L610,1416 Z M650,1295 L635,1341 L650,1388 L665,1341 Z M650,1295 L601,1295 L562,1266 L610,1266 Z M610,1174 L595,1220 L610,1266 L625,1220 Z M665,1191 L650,1238 L610,1266 L625,1220 Z M689,1174 L650,1145 L665,1191 L704,1220 Z M738,1174 L689,1174 L650,1145 L699,1145 Z M793,1249 L777,1295 L793,1341 L808,1295 Z M753,1313 L704,1313 L665,1341 L714,1341 Z M777,1295 L738,1266 L753,1313 L793,1341 Z M793,1341 L777,1388 L738,1416 L753,1370 Z M753,1370 L704,1370 L665,1341 L714,1341 Z M832,1370 L817,1416 L832,1463 L847,1416 Z M881,1313 L832,1313 L793,1341 L841,1341 Z M881,1370 L832,1370 L793,1341 L841,1341 Z M935,1388 L984,1388 L1024,1416 L975,1416 Z M881,1463 L920,1491 L935,1538 L896,1509 Z M881,1463 L832,1463 L793,1491 L841,1491 Z M817,1416 L777,1388 L793,1434 L832,1463 Z M793,1491 L777,1538 L793,1584 L808,1538 Z M738,1509 L689,1509 L650,1538 L699,1538 Z M704,1463 L689,1509 L650,1538 L665,1491 Z M650,1538 L635,1584 L650,1631 L665,1584 Z M650,1538 L635,1584 L595,1613 L610,1566 Z M650,1538 L601,1538 L562,1566 L610,1566 Z M650,1538 L601,1538 L562,1509 L610,1509 Z M635,1491 L595,1463 L610,1509 L650,1538 Z M689,1566 L650,1538 L665,1584 L704,1613 Z M738,1566 L689,1566 L650,1538 L699,1538 Z M832,1613 L817,1659 L832,1706 L847,1659 Z M832,1613 L817,1659 L777,1688 L793,1642 Z M841,1584 L793,1584 L832,1613 L881,1613 Z M935,1538 L920,1584 L881,1613 L896,1566 Z M1024,1566 L1008,1613 L1024,1659 L1039,1613 Z M969,1584 L1008,1613 L1024,1659 L984,1631 Z M1024,1659 L1063,1688 L1078,1734 L1039,1706 Z M1024,1659 L1008,1706 L1024,1752 L1039,1706 Z M1024,1659 L1008,1706 L969,1734 L984,1688 Z M1024,1659 L1072,1659 L1112,1688 L1063,1688 Z M1063,1631 L1112,1631 L1072,1659 L1024,1659 Z M975,1659 L1024,1659 L984,1688 L935,1688 Z M1166,1706 L1215,1706 L1254,1734 L1206,1734 Z M1215,1613 L1254,1642 L1270,1688 L1230,1659 Z M1215,1613 L1200,1659 L1215,1706 L1230,1659 Z M1206,1584 L1254,1584 L1215,1613 L1166,1613 Z M1254,1491 L1239,1538 L1254,1584 L1270,1538 Z M1309,1509 L1358,1509 L1397,1538 L1348,1538 Z M1343,1463 L1382,1491 L1397,1538 L1358,1509 Z M1397,1388 L1446,1388 L1485,1416 L1437,1416 Z M1397,1445 L1382,1491 L1397,1538 L1412,1491 Z M1500,1370 L1485,1416 L1525,1388 L1540,1341 Z M1574,1295 L1589,1249 L1628,1220 L1613,1266 Z M1628,1370 L1613,1416 L1628,1463 L1643,1416 Z M1716,1341 L1756,1370 L1771,1416 L1731,1388 Z M1716,1341 L1731,1295 L1771,1266 L1756,1313 Z M1485,1266 L1525,1295 L1540,1341 L1500,1313 Z M1540,1249 L1589,1249 L1628,1220 L1579,1220 Z M1540,1191 L1589,1191 L1628,1220 L1579,1220 Z M1422,1220 L1437,1174 L1452,1220 L1437,1266 Z M1397,1295 L1382,1341 L1397,1388 L1412,1341 Z M1397,1295 L1446,1295 L1485,1266 L1437,1266 Z M1343,1220 L1358,1174 L1397,1145 L1382,1191 Z M1309,1266 L1294,1313 L1254,1341 L1270,1295 Z M1254,1249 L1239,1295 L1254,1341 L1270,1295 Z M1309,1174 L1358,1174 L1397,1145 L1348,1145 Z M1206,1191 L1254,1191 L1215,1220 L1166,1220 Z M1200,1266 L1239,1295 L1254,1341 L1215,1313 Z M1574,1145 L1613,1174 L1628,1220 L1589,1191 Z M1613,1024 L1628,977 L1643,1024 L1628,1070 Z M1643,1024 L1692,1024 L1731,995 L1683,995 Z M1643,1024 L1692,1024 L1731,1052 L1683,1052 Z M1333,1341 L1382,1341 L1343,1370 L1294,1370 Z M1112,1538 L1151,1566 L1166,1613 L1127,1584 Z M1078,1584 L1063,1631 L1024,1659 L1039,1613 Z M1206,1734 L1191,1781 L1151,1809 L1166,1763 Z M1191,1781 L1239,1781 L1200,1809 L1151,1809 Z M1166,1856 L1151,1902 L1112,1931 L1127,1884 Z M1166,1856 L1215,1856 L1254,1884 L1206,1884 Z M1112,1781 L1151,1809 L1166,1856 L1127,1827 Z M1039,1856 L1087,1856 L1127,1884 L1078,1884 Z M1024,1809 L1008,1856 L1024,1902 L1039,1856 Z M960,1856 L1008,1856 L969,1884 L920,1884 Z M935,1781 L920,1827 L881,1856 L896,1809 Z M935,1781 L984,1781 L1024,1809 L975,1809 Z M1063,1781 L1112,1781 L1072,1809 L1024,1809 Z M856,1781 L808,1781 L847,1809 L896,1809 Z M704,1856 L689,1902 L650,1931 L665,1884 Z M793,1734 L777,1781 L793,1827 L808,1781 Z M793,1734 L777,1781 L738,1809 L753,1763 Z M714,1734 L665,1734 L704,1763 L753,1763 Z M753,1706 L704,1706 L665,1734 L714,1734 Z M738,1659 L777,1688 L793,1734 L753,1706 Z M650,1688 L635,1734 L650,1781 L665,1734 Z M650,1688 L601,1688 L562,1659 L610,1659 Z M562,1659 L547,1706 L507,1734 L522,1688 Z M547,1613 L507,1584 L522,1631 L562,1659 Z M522,1688 L473,1688 L434,1659 L483,1659 Z M507,1584 L458,1584 L419,1613 L468,1613 Z M419,1613 L404,1659 L419,1706 L434,1659 Z M419,1613 L370,1613 L331,1584 L379,1584 Z M404,1659 L355,1659 L316,1688 L364,1688 Z M331,1584 L316,1631 L276,1659 L291,1613 Z M443,1538 L404,1509 L419,1556 L458,1584 Z M419,1463 L404,1509 L364,1538 L379,1491 Z M419,1463 L370,1463 L331,1491 L379,1491 Z M404,1416 L355,1416 L316,1388 L364,1388 Z M458,1491 L443,1538 L458,1584 L473,1538 Z M507,1491 L458,1491 L419,1463 L468,1463 Z M650,1445 L635,1491 L650,1538 L665,1491 Z M355,1416 L316,1388 L331,1434 L370,1463 Z M419,1370 L404,1416 L419,1463 L434,1416 Z M881,1706 L832,1706 L793,1734 L841,1734 Z M841,1734 L881,1763 L896,1809 L856,1781 Z M935,1631 L984,1631 L1024,1659 L975,1659 Z M960,1463 L1008,1463 L969,1491 L920,1491 Z M847,1266 L832,1313 L793,1341 L808,1295 Z M738,1116 L689,1116 L650,1145 L699,1145 Z M507,1191 L458,1191 L419,1220 L468,1220 Z M419,920 L434,873 L419,827 L404,873 Z M473,902 L434,873 L419,827 L458,856 Z M1206,856 L1254,856 L1215,827 L1166,827 Z M1309,1116 L1358,1116 L1397,1145 L1348,1145 Z M975,781 L1024,781 L984,752 L935,752 Z M969,706 L984,659 L1024,631 L1008,677 Z M881,677 L832,677 L793,706 L841,706 Z M935,659 L984,659 L1024,631 L975,631 Z M547,677 L562,631 L522,659 L507,706 Z M522,659 L483,631 L468,584 L507,613 Z M522,659 L473,659 L434,631 L483,631 Z M507,556 L458,556 L419,584 L468,584 Z M404,388 L355,388 L316,359 L364,359 Z M1206,70 L1254,70 L1215,41 L1166,41 Z M1254,163 L1270,116 L1254,70 L1239,116 Z M1309,145 L1270,116 L1254,70 L1294,99 Z M1309,145 L1358,145 L1397,116 L1348,116 Z M1437,145 L1485,145 L1446,116 L1397,116 Z M1343,191 L1358,145 L1397,116 L1382,163 Z M856,266 L808,266 L847,238 L896,238 Z M841,313 L856,266 L896,238 L881,284 Z " fill="rgb(31, 0, 51)"/><path d="M1008,977 L1024,931 L984,902 L969,948 Z M1063,995 L1112,995 L1127,948 L1078,948 Z M1063,1052 L1112,1052 L1127,1099 L1078,1099 Z M1008,1070 L969,1099 L984,1145 L1024,1116 Z M975,1024 L935,995 L896,1024 L935,1052 Z M1151,1024 L1112,1052 L1127,1099 L1166,1070 Z M1151,1024 L1112,995 L1072,1024 L1112,1052 Z M1151,1024 L1166,977 L1127,948 L1112,995 Z M1151,1024 L1200,1024 L1215,1070 L1166,1070 Z M1151,1024 L1200,1024 L1215,977 L1166,977 Z M1166,1070 L1206,1099 L1166,1127 L1127,1099 Z M1166,977 L1127,948 L1166,920 L1206,948 Z M1215,1070 L1230,1024 L1270,1052 L1254,1099 Z M1215,977 L1254,948 L1270,995 L1230,1024 Z M1230,1024 L1270,1052 L1309,1024 L1270,995 Z M1254,948 L1270,902 L1309,931 L1294,977 Z M1294,977 L1343,977 L1358,1024 L1309,1024 Z M1294,977 L1343,977 L1358,931 L1309,931 Z M1270,902 L1309,931 L1348,902 L1309,873 Z M1191,902 L1206,856 L1166,827 L1151,873 Z M1191,902 L1239,902 L1254,948 L1206,948 Z M1191,902 L1239,902 L1254,856 L1206,856 Z M1112,902 L1151,873 L1166,920 L1127,948 Z M1063,902 L1024,931 L1039,977 L1078,948 Z M1063,902 L1024,873 L984,902 L1024,931 Z M1063,902 L1078,856 L1039,827 L1024,873 Z M1063,902 L1112,902 L1127,948 L1078,948 Z M1063,902 L1112,902 L1127,856 L1078,856 Z M1024,873 L984,902 L969,856 L1008,827 Z M1039,827 L1087,827 L1072,781 L1024,781 Z M1127,856 L1087,827 L1127,798 L1166,827 Z M1166,827 L1215,827 L1200,781 L1151,781 Z M1087,827 L1127,798 L1112,752 L1072,781 Z M1151,781 L1166,734 L1127,706 L1112,752 Z M1151,781 L1200,781 L1215,734 L1166,734 Z M1127,706 L1166,677 L1151,631 L1112,659 Z M1063,752 L1078,706 L1039,677 L1024,723 Z M1063,752 L1112,752 L1127,706 L1078,706 Z M1024,781 L984,752 L1024,723 L1063,752 Z M1078,706 L1127,706 L1112,659 L1063,659 Z M1024,631 L1072,631 L1087,584 L1039,584 Z M1008,584 L1023,538 L984,509 L969,556 Z M1039,584 L1078,556 L1063,509 L1023,538 Z M975,631 L1024,631 L1008,584 L960,584 Z M1112,659 L1072,631 L1112,602 L1151,631 Z M1166,584 L1206,556 L1191,509 L1151,538 Z M1078,556 L1127,556 L1112,509 L1063,509 Z M1063,509 L1078,463 L1039,434 L1023,481 Z M1063,509 L1112,509 L1127,463 L1078,463 Z M1023,538 L984,509 L1023,481 L1063,509 Z M1078,463 L1127,463 L1112,416 L1063,416 Z M1127,463 L1166,434 L1151,388 L1112,416 Z M1112,416 L1072,388 L1112,359 L1151,388 Z M1166,434 L1215,434 L1200,388 L1151,388 Z M1151,388 L1166,341 L1127,313 L1112,359 Z M1151,388 L1200,388 L1215,341 L1166,341 Z M1254,463 L1215,434 L1254,405 L1294,434 Z M1230,388 L1270,359 L1254,313 L1215,341 Z M1309,388 L1358,388 L1343,341 L1294,341 Z M1294,341 L1254,313 L1294,284 L1333,313 Z M1294,434 L1309,388 L1270,359 L1254,405 Z M1294,434 L1343,434 L1358,388 L1309,388 Z M1358,388 L1397,359 L1382,313 L1343,341 Z M1397,359 L1446,359 L1461,313 L1412,313 Z M1397,416 L1358,388 L1397,359 L1437,388 Z M1382,463 L1397,416 L1358,388 L1343,434 Z M1437,481 L1485,481 L1500,434 L1452,434 Z M1412,463 L1452,434 L1437,388 L1397,416 Z M1485,538 L1446,509 L1485,481 L1525,509 Z M1500,584 L1540,556 L1525,509 L1485,538 Z M1500,584 L1540,613 L1579,584 L1540,556 Z M1525,509 L1540,463 L1500,434 L1485,481 Z M1525,509 L1574,509 L1589,463 L1540,463 Z M1540,556 L1589,556 L1574,509 L1525,509 Z M1540,463 L1579,434 L1564,388 L1525,416 Z M1589,556 L1604,509 L1643,538 L1628,584 Z M1589,463 L1628,491 L1668,463 L1628,434 Z M1628,434 L1677,434 L1692,388 L1643,388 Z M1643,538 L1683,509 L1668,463 L1628,491 Z M1683,509 L1731,509 L1716,463 L1668,463 Z M1731,509 L1771,481 L1756,434 L1716,463 Z M1731,509 L1771,538 L1810,509 L1771,481 Z M1677,434 L1692,388 L1731,416 L1716,463 Z M1692,388 L1731,416 L1771,388 L1731,359 Z M1643,388 L1683,359 L1668,313 L1628,341 Z M1628,341 L1589,313 L1628,284 L1668,313 Z M1683,359 L1731,359 L1716,313 L1668,313 Z M1668,313 L1683,266 L1643,238 L1628,284 Z M1589,313 L1628,284 L1613,238 L1574,266 Z M1540,313 L1589,313 L1574,266 L1525,266 Z M1525,266 L1540,220 L1500,191 L1485,238 Z M1525,266 L1574,266 L1589,220 L1540,220 Z M1500,341 L1540,313 L1525,266 L1485,295 Z M1525,359 L1574,359 L1589,313 L1540,313 Z M1485,388 L1500,341 L1461,313 L1446,359 Z M1579,434 L1628,434 L1613,388 L1564,388 Z M1525,416 L1485,388 L1525,359 L1564,388 Z M1613,388 L1628,341 L1589,313 L1574,359 Z M1452,434 L1500,434 L1485,388 L1437,388 Z M1412,313 L1461,313 L1446,266 L1397,266 Z M1397,266 L1437,238 L1422,191 L1382,220 Z M1382,220 L1343,191 L1382,163 L1422,191 Z M1437,238 L1485,238 L1500,191 L1452,191 Z M1382,313 L1397,266 L1358,238 L1343,284 Z M1294,284 L1343,284 L1358,238 L1309,238 Z M1309,238 L1358,238 L1343,191 L1294,191 Z M1294,191 L1309,145 L1270,116 L1254,163 Z M1294,191 L1343,191 L1358,145 L1309,145 Z M1270,266 L1309,238 L1294,191 L1254,220 Z M1254,220 L1215,191 L1254,163 L1294,191 Z M1239,266 L1254,220 L1215,191 L1200,238 Z M1206,313 L1254,313 L1239,266 L1191,266 Z M1151,238 L1200,238 L1215,191 L1166,191 Z M1112,266 L1127,220 L1087,191 L1072,238 Z M1166,191 L1206,163 L1191,116 L1151,145 Z M1151,145 L1166,99 L1127,70 L1112,116 Z M1206,163 L1254,163 L1239,116 L1191,116 Z M1127,220 L1087,191 L1127,163 L1166,191 Z M1078,163 L1127,163 L1112,116 L1063,116 Z M1063,116 L1078,70 L1039,41 L1023,88 Z M1063,116 L1112,116 L1127,70 L1078,70 Z M1039,191 L1078,163 L1063,116 L1023,145 Z M1023,145 L984,116 L1023,88 L1063,116 Z M1023,238 L1072,238 L1087,191 L1039,191 Z M1008,191 L1023,145 L984,116 L969,163 Z M975,238 L1023,238 L1008,191 L960,191 Z M935,266 L975,238 L960,191 L920,220 Z M920,220 L881,191 L920,163 L960,191 Z M896,238 L847,238 L832,191 L881,191 Z M920,313 L935,266 L896,238 L881,284 Z M920,313 L969,313 L984,266 L935,266 Z M935,359 L984,359 L969,313 L920,313 Z M881,341 L841,313 L881,284 L920,313 Z M1008,341 L1023,295 L984,266 L969,313 Z M1023,295 L984,266 L1023,238 L1063,266 Z M1039,341 L1078,313 L1063,266 L1023,295 Z M1078,313 L1127,313 L1112,266 L1063,266 Z M1063,359 L1112,359 L1127,313 L1078,313 Z M1127,313 L1166,284 L1151,238 L1112,266 Z M1166,341 L1127,313 L1166,284 L1206,313 Z M935,416 L896,388 L935,359 L975,388 Z M896,388 L935,359 L920,313 L881,341 Z M896,388 L847,388 L832,341 L881,341 Z M920,463 L935,416 L896,388 L881,434 Z M920,463 L969,463 L984,416 L935,416 Z M935,509 L984,509 L969,463 L920,463 Z M881,434 L832,434 L847,388 L896,388 Z M984,509 L1023,481 L1008,434 L969,463 Z M920,556 L969,556 L984,509 L935,509 Z M881,584 L896,538 L856,509 L841,556 Z M896,631 L935,602 L920,556 L881,584 Z M896,631 L847,631 L832,584 L881,584 Z M841,556 L793,556 L808,509 L856,509 Z M896,538 L856,509 L896,481 L935,509 Z M832,584 L793,556 L753,584 L793,613 Z M793,556 L753,584 L738,538 L777,509 Z M832,677 L793,706 L777,659 L817,631 Z M777,659 L793,613 L753,584 L738,631 Z M793,706 L753,677 L714,706 L753,734 Z M738,631 L689,631 L704,584 L753,584 Z M753,677 L704,677 L689,631 L738,631 Z M753,584 L704,584 L689,538 L738,538 Z M689,631 L650,602 L610,631 L650,659 Z M689,631 L704,584 L665,556 L650,602 Z M704,677 L665,706 L650,659 L689,631 Z M650,602 L610,631 L595,584 L635,556 Z M635,463 L650,416 L610,388 L595,434 Z M610,481 L562,481 L547,434 L595,434 Z M601,509 L562,481 L522,509 L562,538 Z M738,481 L689,481 L704,434 L753,434 Z M777,509 L738,481 L699,509 L738,538 Z M777,509 L793,463 L753,434 L738,481 Z M793,463 L753,434 L793,405 L832,434 Z M753,434 L793,405 L777,359 L738,388 Z M753,434 L704,434 L689,388 L738,388 Z M856,509 L896,481 L881,434 L841,463 Z M856,509 L808,509 L793,463 L841,463 Z M738,388 L689,388 L704,341 L753,341 Z M704,434 L665,463 L650,416 L689,388 Z M689,388 L650,359 L610,388 L650,416 Z M689,388 L704,341 L665,313 L650,359 Z M650,359 L601,359 L586,313 L635,313 Z M665,313 L704,284 L689,238 L650,266 Z M753,341 L714,313 L753,284 L793,313 Z M753,284 L704,284 L689,238 L738,238 Z M738,238 L689,238 L704,191 L753,191 Z M650,266 L665,220 L625,191 L610,238 Z M665,220 L625,191 L665,163 L704,191 Z M753,191 L793,163 L777,116 L738,145 Z M753,191 L704,191 L689,145 L738,145 Z M738,145 L753,99 L714,70 L699,116 Z M793,220 L753,191 L793,163 L832,191 Z M808,266 L847,238 L832,191 L793,220 Z M777,266 L793,220 L753,191 L738,238 Z M881,191 L896,145 L856,116 L841,163 Z M920,163 L969,163 L984,116 L935,116 Z M841,163 L793,163 L808,116 L856,116 Z M896,145 L935,116 L920,70 L881,99 Z M881,99 L841,70 L881,41 L920,70 Z M935,116 L984,116 L969,70 L920,70 Z M856,116 L808,116 L793,70 L841,70 Z M753,99 L714,70 L753,41 L793,70 Z M699,116 L650,116 L665,70 L714,70 Z M547,191 L507,163 L468,191 L507,220 Z M562,238 L522,266 L507,220 L547,191 Z M595,191 L547,191 L562,145 L610,145 Z M610,238 L562,238 L547,191 L595,191 Z M625,191 L665,163 L650,116 L610,145 Z M522,266 L473,266 L458,220 L507,220 Z M458,313 L419,284 L379,313 L419,341 Z M458,313 L473,266 L434,238 L419,284 Z M473,359 L434,388 L419,341 L458,313 Z M419,284 L379,313 L364,266 L404,238 Z M507,313 L458,313 L473,266 L522,266 Z M522,359 L473,359 L458,313 L507,313 Z M547,341 L562,295 L522,266 L507,313 Z M562,388 L522,359 L483,388 L522,416 Z M601,266 L562,238 L522,266 L562,295 Z M601,359 L562,388 L547,341 L586,313 Z M635,313 L586,313 L601,266 L650,266 Z M595,434 L547,434 L562,388 L610,388 Z M562,481 L522,509 L507,463 L547,434 Z M507,463 L522,416 L483,388 L468,434 Z M522,509 L473,509 L458,463 L507,463 Z M468,434 L419,434 L434,388 L483,388 Z M458,463 L419,434 L379,463 L419,491 Z M419,434 L370,434 L355,388 L404,388 Z M458,556 L419,584 L404,538 L443,509 Z M404,538 L419,491 L379,463 L364,509 Z M364,509 L316,509 L331,463 L379,463 Z M379,556 L331,556 L316,509 L364,509 Z M316,509 L276,481 L237,509 L276,538 Z M316,509 L331,463 L291,434 L276,481 Z M331,556 L291,584 L276,538 L316,509 Z M276,481 L227,481 L212,434 L261,434 Z M370,434 L331,463 L316,416 L355,388 Z M261,434 L212,434 L227,388 L276,388 Z M227,481 L188,509 L173,463 L212,434 Z M188,602 L149,631 L133,584 L173,556 Z M212,584 L227,538 L188,509 L173,556 Z M227,631 L188,602 L149,631 L188,659 Z M261,584 L212,584 L227,538 L276,538 Z M276,631 L227,631 L212,584 L261,584 Z M291,677 L252,706 L237,659 L276,631 Z M316,659 L331,613 L291,584 L276,631 Z M370,584 L331,556 L291,584 L331,613 Z M404,631 L355,631 L370,584 L419,584 Z M419,677 L379,706 L364,659 L404,631 Z M379,706 L331,706 L316,659 L364,659 Z M364,752 L316,752 L331,706 L379,706 Z M331,706 L291,677 L252,706 L291,734 Z M331,798 L291,827 L276,781 L316,752 Z M276,781 L291,734 L252,706 L237,752 Z M237,752 L188,752 L173,706 L222,706 Z M261,827 L212,827 L227,781 L276,781 Z M227,781 L188,752 L149,781 L188,809 Z M188,752 L149,781 L133,734 L173,706 Z M227,873 L188,902 L173,856 L212,827 Z M173,856 L188,809 L149,781 L133,827 Z M188,902 L149,873 L109,902 L149,931 Z M133,827 L85,827 L100,781 L149,781 Z M149,873 L100,873 L85,827 L133,827 Z M149,781 L100,781 L85,734 L133,734 Z M85,827 L100,781 L60,752 L45,798 Z M100,873 L60,902 L45,856 L85,827 Z M173,706 L133,677 L94,706 L133,734 Z M173,706 L188,659 L149,631 L133,677 Z M133,677 L85,677 L100,631 L149,631 Z M222,706 L173,706 L188,659 L237,659 Z M60,995 L21,1024 L6,977 L45,948 Z M109,902 L60,902 L45,948 L94,948 Z M149,931 L133,977 L94,948 L109,902 Z M149,1024 L100,1024 L85,977 L133,977 Z M149,1024 L100,1024 L85,1070 L133,1070 Z M188,995 L149,1024 L133,977 L173,948 Z M237,995 L188,995 L173,948 L222,948 Z M237,902 L188,902 L173,948 L222,948 Z M276,873 L227,873 L212,827 L261,827 Z M291,977 L276,1024 L237,995 L252,948 Z M316,902 L276,873 L237,902 L276,931 Z M316,902 L331,856 L291,827 L276,873 Z M331,948 L291,977 L276,931 L316,902 Z M364,902 L316,902 L331,856 L379,856 Z M379,948 L331,948 L316,902 L364,902 Z M379,948 L331,948 L316,995 L364,995 Z M404,781 L419,734 L379,706 L364,752 Z M379,798 L331,798 L316,752 L364,752 Z M370,827 L331,798 L291,827 L331,856 Z M507,798 L458,798 L473,752 L522,752 Z M522,902 L473,902 L458,856 L507,856 Z M547,827 L507,798 L468,827 L507,856 Z M547,827 L562,781 L522,752 L507,798 Z M562,873 L522,902 L507,856 L547,827 Z M595,827 L547,827 L562,781 L610,781 Z M610,873 L562,873 L547,827 L595,827 Z M650,752 L601,752 L586,706 L635,706 Z M689,781 L650,752 L610,781 L650,809 Z M689,781 L704,734 L665,706 L650,752 Z M704,827 L665,856 L650,809 L689,781 Z M738,781 L689,781 L704,734 L753,734 Z M753,827 L704,827 L689,781 L738,781 Z M793,798 L753,827 L738,781 L777,752 Z M832,827 L793,798 L753,827 L793,856 Z M832,827 L847,781 L808,752 L793,798 Z M896,781 L847,781 L832,734 L881,734 Z M935,752 L896,781 L881,734 L920,706 Z M935,752 L984,752 L969,706 L920,706 Z M881,827 L832,827 L847,781 L896,781 Z M896,873 L856,902 L841,856 L881,827 Z M935,902 L984,902 L969,856 L920,856 Z M960,827 L920,798 L881,827 L920,856 Z M960,827 L975,781 L935,752 L920,798 Z M960,827 L1008,827 L1024,781 L975,781 Z M920,948 L881,977 L896,1024 L935,995 Z M920,948 L881,920 L841,948 L881,977 Z M920,948 L935,902 L896,873 L881,920 Z M920,948 L969,948 L984,995 L935,995 Z M920,948 L969,948 L984,902 L935,902 Z M881,977 L832,977 L847,1024 L896,1024 Z M841,948 L793,948 L808,902 L856,902 Z M856,902 L808,902 L793,856 L841,856 Z M793,948 L753,977 L738,931 L777,902 Z M777,902 L738,873 L699,902 L738,931 Z M777,902 L793,856 L753,827 L738,873 Z M753,977 L704,977 L689,931 L738,931 Z M738,1024 L689,1024 L704,1070 L753,1070 Z M738,1024 L689,1024 L704,977 L753,977 Z M817,1024 L777,1052 L793,1099 L832,1070 Z M817,1024 L777,995 L738,1024 L777,1052 Z M817,1024 L832,977 L793,948 L777,995 Z M793,1099 L777,1145 L738,1116 L753,1070 Z M753,1070 L704,1070 L689,1116 L738,1116 Z M777,1145 L738,1174 L753,1220 L793,1191 Z M777,1145 L738,1116 L699,1145 L738,1174 Z M841,1099 L793,1099 L808,1145 L856,1145 Z M856,1145 L808,1145 L793,1191 L841,1191 Z M881,1070 L832,1070 L847,1024 L896,1024 Z M896,1174 L881,1220 L841,1191 L856,1145 Z M920,1099 L881,1127 L896,1174 L935,1145 Z M920,1099 L881,1070 L841,1099 L881,1127 Z M920,1099 L935,1052 L896,1024 L881,1070 Z M920,1099 L969,1099 L984,1145 L935,1145 Z M920,1099 L969,1099 L984,1052 L935,1052 Z M935,1145 L984,1145 L969,1191 L920,1191 Z M1024,1174 L1008,1220 L969,1191 L984,1145 Z M881,1220 L832,1220 L847,1266 L896,1266 Z M960,1220 L920,1249 L935,1295 L975,1266 Z M960,1220 L920,1191 L881,1220 L920,1249 Z M960,1220 L1008,1220 L1024,1266 L975,1266 Z M935,1295 L920,1341 L881,1313 L896,1266 Z M935,1295 L984,1295 L969,1341 L920,1341 Z M896,1266 L847,1266 L832,1313 L881,1313 Z M920,1341 L881,1370 L896,1416 L935,1388 Z M920,1341 L881,1313 L841,1341 L881,1370 Z M920,1341 L969,1341 L984,1388 L935,1388 Z M984,1295 L969,1341 L1008,1370 L1024,1324 Z M1024,1266 L1063,1295 L1024,1324 L984,1295 Z M1024,1416 L1072,1416 L1087,1463 L1039,1463 Z M1039,1463 L1024,1509 L1063,1538 L1078,1491 Z M1008,1463 L969,1491 L984,1538 L1024,1509 Z M975,1416 L1024,1416 L1008,1463 L960,1463 Z M1112,1388 L1151,1416 L1112,1445 L1072,1416 Z M1151,1416 L1112,1445 L1127,1491 L1166,1463 Z M1151,1416 L1200,1416 L1215,1463 L1166,1463 Z M1166,1463 L1151,1509 L1191,1538 L1206,1491 Z M1166,1370 L1215,1370 L1200,1416 L1151,1416 Z M1254,1341 L1215,1370 L1230,1416 L1270,1388 Z M1270,1388 L1254,1434 L1294,1463 L1309,1416 Z M1294,1313 L1333,1341 L1294,1370 L1254,1341 Z M1294,1370 L1343,1370 L1358,1416 L1309,1416 Z M1166,1313 L1206,1341 L1166,1370 L1127,1341 Z M1151,1266 L1112,1295 L1127,1341 L1166,1313 Z M1151,1266 L1200,1266 L1215,1313 L1166,1313 Z M1127,1341 L1112,1388 L1151,1416 L1166,1370 Z M1078,1341 L1127,1341 L1112,1388 L1063,1388 Z M1063,1295 L1024,1324 L1039,1370 L1078,1341 Z M1063,1295 L1112,1295 L1127,1341 L1078,1341 Z M1166,1220 L1215,1220 L1200,1266 L1151,1266 Z M1087,1220 L1072,1266 L1112,1295 L1127,1249 Z M1127,1191 L1166,1220 L1127,1249 L1087,1220 Z M1039,1220 L1087,1220 L1072,1266 L1024,1266 Z M1063,1145 L1024,1174 L1039,1220 L1078,1191 Z M1063,1145 L1024,1116 L984,1145 L1024,1174 Z M1063,1145 L1078,1099 L1039,1070 L1024,1116 Z M1063,1145 L1112,1145 L1127,1191 L1078,1191 Z M1063,1145 L1112,1145 L1127,1099 L1078,1099 Z M1112,1145 L1127,1099 L1166,1127 L1151,1174 Z M1191,1145 L1151,1174 L1166,1220 L1206,1191 Z M1191,1145 L1239,1145 L1254,1191 L1206,1191 Z M1191,1145 L1239,1145 L1254,1099 L1206,1099 Z M1254,1099 L1294,1070 L1309,1116 L1270,1145 Z M1270,1145 L1309,1174 L1348,1145 L1309,1116 Z M1294,1070 L1343,1070 L1358,1116 L1309,1116 Z M1294,1070 L1343,1070 L1358,1024 L1309,1024 Z M1358,1024 L1397,1052 L1437,1024 L1397,995 Z M1343,977 L1382,948 L1397,995 L1358,1024 Z M1397,995 L1412,948 L1452,977 L1437,1024 Z M1397,1052 L1437,1024 L1452,1070 L1412,1099 Z M1343,1070 L1358,1024 L1397,1052 L1382,1099 Z M1397,1145 L1446,1145 L1461,1099 L1412,1099 Z M1437,1174 L1485,1174 L1500,1220 L1452,1220 Z M1382,1191 L1397,1145 L1437,1174 L1422,1220 Z M1446,1145 L1485,1174 L1525,1145 L1485,1116 Z M1485,1116 L1500,1070 L1540,1099 L1525,1145 Z M1485,1174 L1525,1145 L1540,1191 L1500,1220 Z M1485,1024 L1525,1052 L1564,1024 L1525,995 Z M1437,1024 L1485,1024 L1500,1070 L1452,1070 Z M1437,1024 L1485,1024 L1500,977 L1452,977 Z M1485,931 L1525,902 L1540,948 L1500,977 Z M1446,902 L1485,931 L1525,902 L1485,873 Z M1485,873 L1500,827 L1540,856 L1525,902 Z M1397,902 L1446,902 L1461,948 L1412,948 Z M1382,856 L1422,827 L1437,873 L1397,902 Z M1437,873 L1485,873 L1500,827 L1452,827 Z M1294,827 L1309,781 L1270,752 L1254,798 Z M1294,827 L1343,827 L1358,873 L1309,873 Z M1294,827 L1343,827 L1358,781 L1309,781 Z M1254,856 L1294,827 L1309,873 L1270,902 Z M1254,856 L1215,827 L1254,798 L1294,827 Z M1309,781 L1358,781 L1343,734 L1294,734 Z M1343,827 L1358,781 L1397,809 L1382,856 Z M1358,781 L1397,752 L1382,706 L1343,734 Z M1358,781 L1397,809 L1437,781 L1397,752 Z M1397,752 L1446,752 L1461,706 L1412,706 Z M1437,781 L1485,781 L1500,827 L1452,827 Z M1485,781 L1525,752 L1540,798 L1500,827 Z M1500,827 L1540,856 L1579,827 L1540,798 Z M1525,752 L1574,752 L1589,798 L1540,798 Z M1525,752 L1574,752 L1589,706 L1540,706 Z M1446,752 L1461,706 L1500,734 L1485,781 Z M1540,706 L1589,706 L1574,659 L1525,659 Z M1461,706 L1500,677 L1485,631 L1446,659 Z M1461,706 L1500,734 L1540,706 L1500,677 Z M1412,706 L1461,706 L1446,659 L1397,659 Z M1397,659 L1358,631 L1397,602 L1437,631 Z M1437,631 L1452,584 L1412,556 L1397,602 Z M1437,631 L1485,631 L1500,584 L1452,584 Z M1358,631 L1397,602 L1382,556 L1343,584 Z M1382,706 L1397,659 L1358,631 L1343,677 Z M1294,734 L1254,706 L1294,677 L1333,706 Z M1294,677 L1343,677 L1358,631 L1309,631 Z M1254,706 L1270,659 L1230,631 L1215,677 Z M1309,631 L1358,631 L1343,584 L1294,584 Z M1294,584 L1309,538 L1270,509 L1254,556 Z M1294,584 L1343,584 L1358,538 L1309,538 Z M1270,659 L1309,631 L1294,584 L1254,613 Z M1254,613 L1215,584 L1254,556 L1294,584 Z M1166,677 L1215,677 L1200,631 L1151,631 Z M1151,631 L1166,584 L1127,556 L1112,602 Z M1151,631 L1200,631 L1215,584 L1166,584 Z M1166,734 L1127,706 L1166,677 L1206,706 Z M1215,827 L1254,798 L1239,752 L1200,781 Z M1270,509 L1309,481 L1294,434 L1254,463 Z M1206,556 L1254,556 L1239,509 L1191,509 Z M1191,509 L1206,463 L1166,434 L1151,481 Z M1191,509 L1239,509 L1254,463 L1206,463 Z M1151,538 L1112,509 L1151,481 L1191,509 Z M1309,481 L1358,481 L1343,434 L1294,434 Z M1309,538 L1270,509 L1309,481 L1348,509 Z M1452,584 L1500,584 L1485,538 L1437,538 Z M1485,631 L1500,584 L1540,613 L1525,659 Z M1564,631 L1613,631 L1628,584 L1579,584 Z M1589,706 L1628,677 L1613,631 L1574,659 Z M1589,706 L1628,734 L1668,706 L1628,677 Z M1628,677 L1643,631 L1683,659 L1668,706 Z M1643,631 L1692,631 L1677,584 L1628,584 Z M1668,556 L1716,556 L1731,509 L1683,509 Z M1677,584 L1716,613 L1756,584 L1716,556 Z M1716,556 L1731,509 L1771,538 L1756,584 Z M1731,659 L1771,631 L1756,584 L1716,613 Z M1771,631 L1820,631 L1835,584 L1786,584 Z M1786,584 L1835,584 L1820,538 L1771,538 Z M1835,584 L1874,556 L1859,509 L1820,538 Z M1820,481 L1835,434 L1874,463 L1859,509 Z M1786,434 L1835,434 L1820,388 L1771,388 Z M1771,481 L1820,481 L1835,434 L1786,434 Z M1898,631 L1947,631 L1962,677 L1914,677 Z M1859,659 L1898,631 L1914,677 L1874,706 Z M1859,602 L1874,556 L1914,584 L1898,631 Z M1820,631 L1859,659 L1898,631 L1859,602 Z M1874,706 L1914,734 L1953,706 L1914,677 Z M1810,659 L1859,659 L1874,706 L1825,706 Z M1810,752 L1859,752 L1874,706 L1825,706 Z M1756,734 L1795,706 L1810,752 L1771,781 Z M1756,677 L1771,631 L1810,659 L1795,706 Z M1716,706 L1756,734 L1795,706 L1756,677 Z M1668,706 L1716,706 L1731,752 L1683,752 Z M1668,706 L1716,706 L1731,659 L1683,659 Z M1628,734 L1668,706 L1683,752 L1643,781 Z M1574,752 L1589,706 L1628,734 L1613,781 Z M1525,902 L1574,902 L1589,948 L1540,948 Z M1525,902 L1574,902 L1589,856 L1540,856 Z M1574,902 L1613,873 L1628,920 L1589,948 Z M1589,948 L1628,977 L1668,948 L1628,920 Z M1628,920 L1643,873 L1683,902 L1668,948 Z M1668,948 L1716,948 L1731,995 L1683,995 Z M1668,948 L1716,948 L1731,902 L1683,902 Z M1668,856 L1716,856 L1731,902 L1683,902 Z M1731,902 L1771,931 L1810,902 L1771,873 Z M1716,856 L1756,827 L1771,873 L1731,902 Z M1771,873 L1820,873 L1835,827 L1786,827 Z M1716,948 L1731,902 L1771,931 L1756,977 Z M1756,977 L1795,948 L1810,995 L1771,1023 Z M1810,995 L1859,995 L1874,948 L1825,948 Z M1810,902 L1859,902 L1874,948 L1825,948 Z M1859,902 L1898,931 L1938,902 L1898,873 Z M1898,873 L1947,873 L1962,827 L1914,827 Z M1898,931 L1938,902 L1953,948 L1914,977 Z M1820,873 L1835,827 L1874,856 L1859,902 Z M1859,809 L1898,781 L1914,827 L1874,856 Z M1820,781 L1859,809 L1898,781 L1859,752 Z M1771,781 L1820,781 L1835,827 L1786,827 Z M1716,798 L1731,752 L1771,781 L1756,827 Z M1677,827 L1716,856 L1756,827 L1716,798 Z M1668,798 L1716,798 L1731,752 L1683,752 Z M1859,752 L1874,706 L1914,734 L1898,781 Z M1898,781 L1947,781 L1962,827 L1914,827 Z M1898,781 L1947,781 L1962,734 L1914,734 Z M1947,781 L1987,752 L2002,798 L1962,827 Z M1947,873 L1962,827 L2002,856 L1987,902 Z M1938,902 L1987,902 L2002,948 L1953,948 Z M1898,1024 L1947,1024 L1962,1070 L1914,1070 Z M1898,1024 L1947,1024 L1962,977 L1914,977 Z M1947,1024 L1987,1052 L2026,1023 L1987,995 Z M1987,995 L2002,948 L2041,977 L2026,1023 Z M1987,1052 L2026,1023 L2041,1070 L2002,1099 Z M1938,1145 L1987,1145 L2002,1099 L1953,1099 Z M1898,1174 L1947,1174 L1962,1220 L1914,1220 Z M1898,1116 L1914,1070 L1953,1099 L1938,1145 Z M1859,1145 L1898,1174 L1938,1145 L1898,1116 Z M1820,1174 L1859,1145 L1874,1191 L1835,1220 Z M1810,1145 L1859,1145 L1874,1099 L1825,1099 Z M1771,1174 L1820,1174 L1835,1220 L1786,1220 Z M1810,1052 L1859,1052 L1874,1099 L1825,1099 Z M1859,1052 L1898,1024 L1914,1070 L1874,1099 Z M1820,1023 L1859,1052 L1898,1024 L1859,995 Z M1859,995 L1874,948 L1914,977 L1898,1024 Z M1756,1070 L1771,1023 L1810,1052 L1795,1099 Z M1731,1145 L1771,1174 L1810,1145 L1771,1116 Z M1716,1099 L1756,1070 L1771,1116 L1731,1145 Z M1716,1191 L1731,1145 L1771,1174 L1756,1220 Z M1668,1099 L1716,1099 L1731,1145 L1683,1145 Z M1668,1099 L1716,1099 L1731,1052 L1683,1052 Z M1668,1191 L1716,1191 L1731,1145 L1683,1145 Z M1668,1249 L1716,1249 L1731,1295 L1683,1295 Z M1677,1220 L1716,1249 L1756,1220 L1716,1191 Z M1716,1249 L1756,1220 L1771,1266 L1731,1295 Z M1771,1266 L1820,1266 L1835,1220 L1786,1220 Z M1810,1295 L1859,1295 L1874,1341 L1825,1341 Z M1756,1313 L1771,1266 L1810,1295 L1795,1341 Z M1820,1266 L1859,1295 L1898,1266 L1859,1238 Z M1859,1238 L1874,1191 L1914,1220 L1898,1266 Z M1859,1295 L1898,1266 L1914,1313 L1874,1341 Z M1874,1341 L1914,1370 L1953,1341 L1914,1313 Z M1898,1266 L1947,1266 L1962,1313 L1914,1313 Z M1898,1266 L1947,1266 L1962,1220 L1914,1220 Z M1947,1266 L1962,1220 L2002,1249 L1987,1295 Z M1947,1174 L1987,1145 L2002,1191 L1962,1220 Z M1898,1416 L1947,1416 L1962,1370 L1914,1370 Z M1859,1445 L1898,1416 L1914,1463 L1874,1491 Z M1859,1388 L1874,1341 L1914,1370 L1898,1416 Z M1820,1416 L1859,1445 L1898,1416 L1859,1388 Z M1810,1388 L1859,1388 L1874,1341 L1825,1341 Z M1771,1416 L1820,1416 L1835,1463 L1786,1463 Z M1756,1370 L1795,1341 L1810,1388 L1771,1416 Z M1786,1463 L1835,1463 L1820,1509 L1771,1509 Z M1731,1388 L1716,1434 L1756,1463 L1771,1416 Z M1716,1491 L1756,1463 L1771,1509 L1731,1538 Z M1677,1463 L1716,1491 L1756,1463 L1716,1434 Z M1643,1509 L1628,1556 L1668,1584 L1683,1538 Z M1589,1491 L1628,1463 L1643,1509 L1604,1538 Z M1668,1491 L1716,1491 L1731,1538 L1683,1538 Z M1643,1416 L1692,1416 L1677,1463 L1628,1463 Z M1564,1416 L1613,1416 L1628,1463 L1579,1463 Z M1540,1491 L1589,1491 L1574,1538 L1525,1538 Z M1500,1463 L1540,1491 L1579,1463 L1540,1434 Z M1500,1463 L1485,1509 L1525,1538 L1540,1491 Z M1485,1416 L1525,1388 L1540,1434 L1500,1463 Z M1485,1509 L1525,1538 L1485,1566 L1446,1538 Z M1452,1463 L1500,1463 L1485,1509 L1437,1509 Z M1437,1416 L1397,1445 L1412,1491 L1452,1463 Z M1437,1416 L1485,1416 L1500,1463 L1452,1463 Z M1412,1584 L1397,1631 L1437,1659 L1452,1613 Z M1437,1566 L1485,1566 L1500,1613 L1452,1613 Z M1382,1584 L1343,1613 L1358,1659 L1397,1631 Z M1525,1538 L1485,1566 L1500,1613 L1540,1584 Z M1525,1538 L1574,1538 L1589,1584 L1540,1584 Z M1540,1584 L1525,1631 L1564,1659 L1579,1613 Z M1589,1584 L1628,1613 L1668,1584 L1628,1556 Z M1628,1613 L1677,1613 L1692,1659 L1643,1659 Z M1643,1659 L1628,1706 L1668,1734 L1683,1688 Z M1613,1659 L1574,1688 L1589,1734 L1628,1706 Z M1579,1613 L1628,1613 L1613,1659 L1564,1659 Z M1677,1613 L1716,1584 L1731,1631 L1692,1659 Z M1692,1659 L1731,1688 L1771,1659 L1731,1631 Z M1731,1538 L1771,1566 L1810,1538 L1771,1509 Z M1731,1538 L1716,1584 L1756,1613 L1771,1566 Z M1771,1566 L1820,1566 L1835,1613 L1786,1613 Z M1683,1538 L1731,1538 L1716,1584 L1668,1584 Z M1786,1613 L1835,1613 L1820,1659 L1771,1659 Z M1820,1566 L1859,1538 L1874,1584 L1835,1613 Z M1835,1463 L1820,1509 L1859,1538 L1874,1491 Z M1668,1734 L1628,1763 L1643,1809 L1683,1781 Z M1628,1706 L1668,1734 L1628,1763 L1589,1734 Z M1683,1688 L1731,1688 L1716,1734 L1668,1734 Z M1589,1734 L1574,1781 L1613,1809 L1628,1763 Z M1540,1734 L1589,1734 L1574,1781 L1525,1781 Z M1525,1688 L1574,1688 L1589,1734 L1540,1734 Z M1500,1706 L1485,1752 L1525,1781 L1540,1734 Z M1525,1781 L1485,1809 L1500,1856 L1540,1827 Z M1525,1781 L1574,1781 L1589,1827 L1540,1827 Z M1540,1827 L1579,1856 L1540,1884 L1500,1856 Z M1485,1752 L1525,1781 L1485,1809 L1446,1781 Z M1397,1781 L1382,1827 L1422,1856 L1437,1809 Z M1382,1734 L1343,1763 L1358,1809 L1397,1781 Z M1437,1809 L1485,1809 L1500,1856 L1452,1856 Z M1382,1827 L1422,1856 L1382,1884 L1343,1856 Z M1412,1734 L1461,1734 L1446,1781 L1397,1781 Z M1397,1688 L1446,1688 L1461,1734 L1412,1734 Z M1358,1659 L1343,1706 L1382,1734 L1397,1688 Z M1485,1659 L1446,1688 L1461,1734 L1500,1706 Z M1525,1631 L1564,1659 L1525,1688 L1485,1659 Z M1397,1631 L1437,1659 L1397,1688 L1358,1659 Z M1309,1659 L1358,1659 L1343,1706 L1294,1706 Z M1294,1613 L1254,1642 L1270,1688 L1309,1659 Z M1294,1613 L1343,1613 L1358,1659 L1309,1659 Z M1294,1706 L1333,1734 L1294,1763 L1254,1734 Z M1294,1763 L1343,1763 L1358,1809 L1309,1809 Z M1309,1809 L1358,1809 L1343,1856 L1294,1856 Z M1270,1781 L1254,1827 L1294,1856 L1309,1809 Z M1294,1856 L1254,1884 L1270,1931 L1309,1902 Z M1294,1856 L1343,1856 L1358,1902 L1309,1902 Z M1309,1902 L1294,1948 L1333,1977 L1348,1931 Z M1254,1827 L1294,1856 L1254,1884 L1215,1856 Z M1422,1856 L1382,1884 L1397,1931 L1437,1902 Z M1452,1856 L1500,1856 L1485,1902 L1437,1902 Z M1348,1931 L1397,1931 L1382,1977 L1333,1977 Z M1294,1948 L1333,1977 L1294,2006 L1254,1977 Z M1191,1931 L1239,1931 L1254,1977 L1206,1977 Z M1166,1948 L1206,1977 L1166,2006 L1127,1977 Z M1151,1902 L1112,1931 L1127,1977 L1166,1948 Z M1078,1977 L1127,1977 L1112,2023 L1063,2023 Z M1063,1931 L1024,1959 L1039,2006 L1078,1977 Z M1063,1931 L1112,1931 L1127,1977 L1078,1977 Z M984,1931 L969,1977 L1008,2006 L1024,1959 Z M920,1977 L969,1977 L984,2023 L935,2023 Z M881,1948 L920,1977 L881,2006 L841,1977 Z M935,1931 L984,1931 L969,1977 L920,1977 Z M920,1884 L969,1884 L984,1931 L935,1931 Z M896,1902 L881,1948 L920,1977 L935,1931 Z M881,1856 L841,1884 L856,1931 L896,1902 Z M856,1931 L808,1931 L793,1977 L841,1977 Z M841,1884 L793,1884 L808,1931 L856,1931 Z M753,1948 L793,1977 L753,2006 L714,1977 Z M738,1902 L699,1931 L714,1977 L753,1948 Z M699,1931 L650,1931 L665,1977 L714,1977 Z M547,1856 L507,1827 L468,1856 L507,1884 Z M562,1809 L547,1856 L507,1827 L522,1781 Z M595,1856 L547,1856 L562,1902 L610,1902 Z M610,1809 L562,1809 L547,1856 L595,1856 Z M625,1856 L610,1902 L650,1931 L665,1884 Z M650,1781 L610,1809 L625,1856 L665,1827 Z M635,1734 L586,1734 L601,1781 L650,1781 Z M665,1827 L704,1856 L665,1884 L625,1856 Z M665,1734 L650,1781 L689,1809 L704,1763 Z M601,1781 L562,1752 L522,1781 L562,1809 Z M547,1706 L507,1734 L522,1781 L562,1752 Z M522,1781 L473,1781 L458,1827 L507,1827 Z M507,1734 L458,1734 L473,1781 L522,1781 Z M458,1734 L419,1763 L434,1809 L473,1781 Z M458,1734 L419,1706 L379,1734 L419,1763 Z M419,1763 L404,1809 L364,1781 L379,1734 Z M364,1688 L316,1688 L331,1734 L379,1734 Z M261,1613 L212,1613 L227,1659 L276,1659 Z M227,1566 L212,1613 L173,1584 L188,1538 Z M276,1566 L227,1566 L212,1613 L261,1613 Z M316,1538 L276,1566 L291,1613 L331,1584 Z M316,1538 L276,1509 L237,1538 L276,1566 Z M261,1463 L212,1463 L227,1509 L276,1509 Z M212,1463 L173,1491 L188,1538 L227,1509 Z M227,1416 L188,1388 L149,1416 L188,1445 Z M188,1445 L173,1491 L133,1463 L149,1416 Z M276,1416 L227,1416 L212,1463 L261,1463 Z M316,1388 L276,1416 L291,1463 L331,1434 Z M291,1370 L276,1416 L237,1388 L252,1341 Z M331,1341 L291,1313 L252,1341 L291,1370 Z M237,1295 L188,1295 L173,1341 L222,1341 Z M276,1266 L237,1295 L252,1341 L291,1313 Z M261,1220 L212,1220 L227,1266 L276,1266 Z M227,1266 L188,1238 L149,1266 L188,1295 Z M188,1295 L173,1341 L133,1313 L149,1266 Z M173,1191 L133,1220 L149,1266 L188,1238 Z M149,1266 L100,1266 L85,1313 L133,1313 Z M133,1220 L85,1220 L100,1266 L149,1266 Z M85,1220 L45,1249 L60,1295 L100,1266 Z M100,1174 L85,1220 L45,1191 L60,1145 Z M149,1174 L100,1174 L85,1220 L133,1220 Z M188,1145 L149,1116 L109,1145 L149,1174 Z M109,1145 L60,1145 L45,1099 L94,1099 Z M149,1116 L109,1145 L94,1099 L133,1070 Z M100,1024 L60,995 L21,1024 L60,1052 Z M60,1052 L45,1099 L6,1070 L21,1024 Z M188,1052 L173,1099 L133,1070 L149,1024 Z M237,1145 L188,1145 L173,1099 L222,1099 Z M237,1052 L188,1052 L173,1099 L222,1099 Z M291,1070 L252,1099 L237,1052 L276,1024 Z M227,1024 L188,995 L149,1024 L188,1052 Z M331,1099 L316,1145 L276,1116 L291,1070 Z M355,1024 L316,995 L276,1024 L316,1052 Z M379,1099 L331,1099 L316,1052 L364,1052 Z M379,1099 L331,1099 L316,1145 L364,1145 Z M419,1070 L379,1099 L364,1052 L404,1024 Z M419,977 L404,1024 L364,995 L379,948 Z M458,948 L419,920 L379,948 L419,977 Z M458,948 L473,902 L434,873 L419,920 Z M483,1024 L434,1024 L419,977 L468,977 Z M483,1024 L434,1024 L419,1070 L468,1070 Z M507,948 L458,948 L473,902 L522,902 Z M522,995 L483,1024 L468,977 L507,948 Z M547,977 L562,931 L522,902 L507,948 Z M562,1024 L522,995 L483,1024 L522,1052 Z M610,1024 L562,1024 L547,977 L595,977 Z M610,1024 L562,1024 L547,1070 L595,1070 Z M635,948 L586,948 L601,902 L650,902 Z M650,995 L610,1024 L595,977 L635,948 Z M650,902 L665,856 L625,827 L610,873 Z M601,902 L562,873 L522,902 L562,931 Z M738,873 L689,873 L704,827 L753,827 Z M689,1024 L650,1052 L665,1099 L704,1070 Z M689,1024 L650,995 L610,1024 L650,1052 Z M689,1024 L704,977 L665,948 L650,995 Z M650,1052 L635,1099 L595,1070 L610,1024 Z M635,1099 L586,1099 L601,1145 L650,1145 Z M650,1145 L610,1174 L625,1220 L665,1191 Z M601,1145 L562,1116 L522,1145 L562,1174 Z M547,1070 L507,1099 L522,1145 L562,1116 Z M507,1099 L458,1099 L473,1145 L522,1145 Z M522,1145 L473,1145 L458,1191 L507,1191 Z M522,1052 L507,1099 L468,1070 L483,1024 Z M458,1099 L419,1127 L434,1174 L473,1145 Z M458,1099 L419,1070 L379,1099 L419,1127 Z M419,1127 L404,1174 L364,1145 L379,1099 Z M364,1145 L316,1145 L331,1191 L379,1191 Z M316,1145 L276,1174 L291,1220 L331,1191 Z M316,1145 L276,1116 L237,1145 L276,1174 Z M276,1174 L227,1174 L212,1220 L261,1220 Z M227,1174 L212,1220 L173,1191 L188,1145 Z M370,1220 L331,1191 L291,1220 L331,1249 Z M331,1249 L316,1295 L276,1266 L291,1220 Z M379,1249 L331,1249 L316,1295 L364,1295 Z M364,1295 L316,1295 L331,1341 L379,1341 Z M379,1341 L331,1341 L316,1388 L364,1388 Z M404,1266 L364,1295 L379,1341 L419,1313 Z M458,1341 L419,1370 L434,1416 L473,1388 Z M458,1341 L419,1313 L379,1341 L419,1370 Z M473,1295 L458,1341 L419,1313 L434,1266 Z M522,1295 L473,1295 L458,1341 L507,1341 Z M507,1249 L458,1249 L473,1295 L522,1295 Z M507,1341 L458,1341 L473,1388 L522,1388 Z M562,1416 L547,1463 L507,1434 L522,1388 Z M586,1341 L547,1370 L562,1416 L601,1388 Z M586,1341 L547,1313 L507,1341 L547,1370 Z M601,1295 L586,1341 L547,1313 L562,1266 Z M635,1341 L586,1341 L601,1388 L650,1388 Z M650,1295 L601,1295 L586,1341 L635,1341 Z M689,1266 L650,1295 L665,1341 L704,1313 Z M689,1266 L650,1238 L610,1266 L650,1295 Z M595,1220 L547,1220 L562,1266 L610,1266 Z M610,1174 L562,1174 L547,1220 L595,1220 Z M704,1220 L689,1266 L650,1238 L665,1191 Z M753,1220 L704,1220 L689,1266 L738,1266 Z M738,1174 L689,1174 L704,1220 L753,1220 Z M793,1249 L777,1295 L738,1266 L753,1220 Z M738,1266 L689,1266 L704,1313 L753,1313 Z M793,1341 L753,1313 L714,1341 L753,1370 Z M753,1370 L704,1370 L689,1416 L738,1416 Z M832,1370 L817,1416 L777,1388 L793,1341 Z M777,1388 L738,1416 L753,1463 L793,1434 Z M881,1370 L832,1370 L847,1416 L896,1416 Z M896,1416 L881,1463 L920,1491 L935,1445 Z M896,1416 L847,1416 L832,1463 L881,1463 Z M935,1388 L975,1416 L935,1445 L896,1416 Z M881,1463 L841,1491 L856,1538 L896,1509 Z M832,1463 L793,1434 L753,1463 L793,1491 Z M793,1491 L777,1538 L738,1509 L753,1463 Z M753,1463 L704,1463 L689,1509 L738,1509 Z M738,1416 L689,1416 L704,1463 L753,1463 Z M689,1416 L650,1445 L665,1491 L704,1463 Z M689,1416 L650,1388 L610,1416 L650,1445 Z M610,1566 L562,1566 L547,1613 L595,1613 Z M635,1584 L595,1613 L610,1659 L650,1631 Z M601,1538 L562,1509 L522,1538 L562,1566 Z M738,1566 L689,1566 L704,1613 L753,1613 Z M753,1613 L738,1659 L777,1688 L793,1642 Z M753,1613 L704,1613 L689,1659 L738,1659 Z M777,1538 L738,1566 L753,1613 L793,1584 Z M777,1538 L738,1509 L699,1538 L738,1566 Z M793,1584 L832,1613 L793,1642 L753,1613 Z M881,1613 L832,1613 L847,1659 L896,1659 Z M856,1538 L841,1584 L881,1613 L896,1566 Z M856,1538 L808,1538 L793,1584 L841,1584 Z M841,1491 L793,1491 L808,1538 L856,1538 Z M896,1509 L935,1538 L896,1566 L856,1538 Z M935,1538 L984,1538 L969,1584 L920,1584 Z M920,1491 L969,1491 L984,1538 L935,1538 Z M920,1584 L881,1613 L896,1659 L935,1631 Z M920,1584 L969,1584 L984,1631 L935,1631 Z M984,1538 L969,1584 L1008,1613 L1024,1566 Z M1024,1509 L1063,1538 L1024,1566 L984,1538 Z M1039,1706 L1024,1752 L1063,1781 L1078,1734 Z M1063,1688 L1112,1688 L1127,1734 L1078,1734 Z M1008,1706 L969,1734 L984,1781 L1024,1752 Z M1112,1631 L1151,1659 L1112,1688 L1072,1659 Z M1127,1734 L1112,1781 L1151,1809 L1166,1763 Z M1151,1659 L1112,1688 L1127,1734 L1166,1706 Z M1151,1659 L1200,1659 L1215,1706 L1166,1706 Z M1166,1706 L1206,1734 L1166,1763 L1127,1734 Z M1166,1613 L1215,1613 L1200,1659 L1151,1659 Z M1230,1659 L1215,1706 L1254,1734 L1270,1688 Z M1254,1584 L1294,1613 L1254,1642 L1215,1613 Z M1270,1538 L1254,1584 L1294,1613 L1309,1566 Z M1191,1538 L1151,1566 L1166,1613 L1206,1584 Z M1191,1538 L1239,1538 L1254,1584 L1206,1584 Z M1151,1509 L1191,1538 L1151,1566 L1112,1538 Z M1206,1491 L1254,1491 L1239,1538 L1191,1538 Z M1294,1463 L1254,1491 L1270,1538 L1309,1509 Z M1294,1463 L1343,1463 L1358,1509 L1309,1509 Z M1309,1509 L1348,1538 L1309,1566 L1270,1538 Z M1254,1434 L1294,1463 L1254,1491 L1215,1463 Z M1309,1416 L1358,1416 L1343,1463 L1294,1463 Z M1358,1416 L1343,1463 L1382,1491 L1397,1445 Z M1397,1388 L1437,1416 L1397,1445 L1358,1416 Z M1382,1341 L1343,1370 L1358,1416 L1397,1388 Z M1412,1341 L1461,1341 L1446,1388 L1397,1388 Z M1461,1341 L1500,1370 L1540,1341 L1500,1313 Z M1461,1341 L1446,1388 L1485,1416 L1500,1370 Z M1446,1295 L1485,1266 L1500,1313 L1461,1341 Z M1540,1341 L1589,1341 L1574,1388 L1525,1388 Z M1525,1295 L1574,1295 L1589,1341 L1540,1341 Z M1525,1295 L1574,1295 L1589,1249 L1540,1249 Z M1589,1341 L1628,1370 L1668,1341 L1628,1313 Z M1589,1341 L1574,1388 L1613,1416 L1628,1370 Z M1574,1295 L1613,1266 L1628,1313 L1589,1341 Z M1628,1313 L1643,1266 L1683,1295 L1668,1341 Z M1628,1370 L1668,1341 L1683,1388 L1643,1416 Z M1668,1341 L1716,1341 L1731,1388 L1683,1388 Z M1668,1341 L1716,1341 L1731,1295 L1683,1295 Z M1716,1341 L1756,1370 L1795,1341 L1756,1313 Z M1485,1266 L1500,1220 L1540,1249 L1525,1295 Z M1500,1220 L1540,1249 L1579,1220 L1540,1191 Z M1437,1266 L1485,1266 L1500,1220 L1452,1220 Z M1397,1295 L1446,1295 L1461,1341 L1412,1341 Z M1358,1266 L1397,1295 L1437,1266 L1397,1238 Z M1358,1266 L1343,1313 L1382,1341 L1397,1295 Z M1343,1220 L1382,1191 L1397,1238 L1358,1266 Z M1309,1266 L1358,1266 L1343,1313 L1294,1313 Z M1294,1220 L1254,1249 L1270,1295 L1309,1266 Z M1294,1220 L1343,1220 L1358,1266 L1309,1266 Z M1294,1220 L1343,1220 L1358,1174 L1309,1174 Z M1254,1191 L1294,1220 L1254,1249 L1215,1220 Z M1254,1191 L1270,1145 L1309,1174 L1294,1220 Z M1215,1220 L1200,1266 L1239,1295 L1254,1249 Z M1525,1145 L1574,1145 L1589,1191 L1540,1191 Z M1525,1145 L1574,1145 L1589,1099 L1540,1099 Z M1574,1145 L1589,1099 L1628,1127 L1613,1174 Z M1589,1099 L1628,1127 L1668,1099 L1628,1070 Z M1628,1070 L1643,1024 L1683,1052 L1668,1099 Z M1628,1127 L1668,1099 L1683,1145 L1643,1174 Z M1564,1024 L1613,1024 L1628,1070 L1579,1070 Z M1564,1024 L1613,1024 L1628,977 L1579,977 Z M1525,1052 L1564,1024 L1579,1070 L1540,1099 Z M1525,995 L1540,948 L1579,977 L1564,1024 Z M1628,977 L1668,948 L1683,995 L1643,1024 Z M1692,1024 L1731,1052 L1771,1023 L1731,995 Z M1127,1584 L1112,1631 L1151,1659 L1166,1613 Z M1063,1538 L1024,1566 L1039,1613 L1078,1584 Z M1063,1538 L1112,1538 L1127,1584 L1078,1584 Z M1078,1584 L1127,1584 L1112,1631 L1063,1631 Z M1078,1491 L1127,1491 L1112,1538 L1063,1538 Z M1309,1566 L1358,1566 L1343,1613 L1294,1613 Z M1206,1734 L1254,1734 L1239,1781 L1191,1781 Z M1151,1809 L1200,1809 L1215,1856 L1166,1856 Z M1239,1781 L1200,1809 L1215,1856 L1254,1827 Z M1166,1856 L1151,1902 L1191,1931 L1206,1884 Z M1206,1884 L1254,1884 L1239,1931 L1191,1931 Z M1127,1827 L1166,1856 L1127,1884 L1087,1856 Z M1112,1781 L1072,1809 L1087,1856 L1127,1827 Z M1039,1856 L1024,1902 L1063,1931 L1078,1884 Z M1024,1809 L1072,1809 L1087,1856 L1039,1856 Z M1078,1884 L1127,1884 L1112,1931 L1063,1931 Z M1024,1902 L1063,1931 L1024,1959 L984,1931 Z M1008,1856 L969,1884 L984,1931 L1024,1902 Z M920,1827 L960,1856 L920,1884 L881,1856 Z M975,1809 L1024,1809 L1008,1856 L960,1856 Z M935,1781 L920,1827 L960,1856 L975,1809 Z M920,1734 L881,1763 L896,1809 L935,1781 Z M920,1734 L969,1734 L984,1781 L935,1781 Z M896,1809 L847,1809 L832,1856 L881,1856 Z M1024,1752 L1063,1781 L1024,1809 L984,1781 Z M1078,1734 L1127,1734 L1112,1781 L1063,1781 Z M808,1781 L793,1827 L832,1856 L847,1809 Z M793,1827 L832,1856 L793,1884 L753,1856 Z M777,1781 L738,1809 L753,1856 L793,1827 Z M753,1856 L738,1902 L777,1931 L793,1884 Z M753,1856 L704,1856 L689,1902 L738,1902 Z M738,1809 L689,1809 L704,1856 L753,1856 Z M753,1763 L704,1763 L689,1809 L738,1809 Z M753,1706 L793,1734 L753,1763 L714,1734 Z M738,1659 L689,1659 L704,1706 L753,1706 Z M689,1659 L650,1688 L665,1734 L704,1706 Z M689,1659 L650,1631 L610,1659 L650,1688 Z M650,1688 L601,1688 L586,1734 L635,1734 Z M704,1613 L689,1659 L650,1631 L665,1584 Z M595,1613 L547,1613 L562,1659 L610,1659 Z M562,1659 L522,1631 L483,1659 L522,1688 Z M522,1688 L473,1688 L458,1734 L507,1734 Z M601,1688 L586,1734 L547,1706 L562,1659 Z M507,1584 L468,1613 L483,1659 L522,1631 Z M468,1613 L419,1613 L434,1659 L483,1659 Z M419,1613 L370,1613 L355,1659 L404,1659 Z M473,1688 L458,1734 L419,1706 L434,1659 Z M458,1584 L419,1556 L379,1584 L419,1613 Z M404,1659 L364,1688 L379,1734 L419,1706 Z M370,1613 L355,1659 L316,1631 L331,1584 Z M355,1659 L316,1631 L276,1659 L316,1688 Z M364,1538 L316,1538 L331,1584 L379,1584 Z M404,1509 L364,1538 L379,1584 L419,1556 Z M404,1416 L355,1416 L370,1463 L419,1463 Z M379,1491 L331,1491 L316,1538 L364,1538 Z M458,1491 L443,1538 L404,1509 L419,1463 Z M370,1463 L331,1434 L291,1463 L331,1491 Z M507,1491 L458,1491 L473,1538 L522,1538 Z M483,1416 L434,1416 L419,1463 L468,1463 Z M522,1538 L473,1538 L458,1584 L507,1584 Z M547,1463 L507,1491 L522,1538 L562,1509 Z M547,1463 L507,1434 L468,1463 L507,1491 Z M595,1463 L547,1463 L562,1509 L610,1509 Z M610,1416 L562,1416 L547,1463 L595,1463 Z M650,1445 L635,1491 L595,1463 L610,1416 Z M562,1566 L547,1613 L507,1584 L522,1538 Z M331,1491 L316,1538 L276,1509 L291,1463 Z M419,1370 L404,1416 L364,1388 L379,1341 Z M817,1659 L777,1688 L793,1734 L832,1706 Z M881,1706 L920,1734 L881,1763 L841,1734 Z M841,1734 L793,1734 L808,1781 L856,1781 Z M896,1659 L881,1706 L920,1734 L935,1688 Z M896,1659 L847,1659 L832,1706 L881,1706 Z M935,1631 L975,1659 L935,1688 L896,1659 Z M935,1688 L984,1688 L969,1734 L920,1734 Z M704,1370 L689,1416 L650,1388 L665,1341 Z M832,1220 L793,1249 L808,1295 L847,1266 Z M832,1220 L793,1191 L753,1220 L793,1249 Z M562,1174 L547,1220 L507,1191 L522,1145 Z M547,1220 L507,1249 L522,1295 L562,1266 Z M547,1220 L507,1191 L468,1220 L507,1249 Z M419,920 L379,948 L364,902 L404,873 Z M173,1341 L133,1370 L149,1416 L188,1388 Z M173,1341 L133,1313 L94,1341 L133,1370 Z M133,1370 L85,1370 L100,1416 L149,1416 Z M222,1341 L173,1341 L188,1388 L237,1388 Z M1452,1613 L1500,1613 L1485,1659 L1437,1659 Z M920,706 L881,677 L841,706 L881,734 Z M920,706 L935,659 L896,631 L881,677 Z M920,706 L969,706 L984,659 L935,659 Z M984,752 L1024,723 L1008,677 L969,706 Z M881,677 L832,677 L847,631 L896,631 Z M935,659 L896,631 L935,602 L975,631 Z M635,706 L586,706 L601,659 L650,659 Z M601,752 L562,781 L547,734 L586,706 Z M586,706 L547,677 L507,706 L547,734 Z M586,706 L601,659 L562,631 L547,677 Z M562,631 L522,659 L507,613 L547,584 Z M547,584 L507,556 L468,584 L507,613 Z M547,584 L562,538 L522,509 L507,556 Z M610,631 L562,631 L547,584 L595,584 Z M595,584 L547,584 L562,538 L610,538 Z M483,631 L434,631 L419,584 L468,584 Z M507,706 L458,706 L473,659 L522,659 Z M458,706 L419,677 L379,706 L419,734 Z M458,706 L473,659 L434,631 L419,677 Z M473,752 L434,781 L419,734 L458,706 Z M522,752 L473,752 L458,706 L507,706 Z M507,556 L458,556 L473,509 L522,509 Z M364,359 L316,359 L331,313 L379,313 Z M404,388 L419,341 L379,313 L364,359 Z M355,388 L316,359 L276,388 L316,416 Z M920,70 L969,70 L984,24 L935,24 Z M984,116 L1023,88 L1008,41 L969,70 Z M1078,70 L1127,70 L1112,24 L1063,24 Z M1166,99 L1127,70 L1166,41 L1206,70 Z M1191,116 L1239,116 L1254,70 L1206,70 Z M1294,99 L1254,70 L1294,41 L1333,70 Z M1309,145 L1348,116 L1333,70 L1294,99 Z M1348,116 L1397,116 L1382,70 L1333,70 Z M1540,220 L1500,191 L1540,163 L1579,191 Z M1452,191 L1500,191 L1485,145 L1437,145 Z M1422,191 L1437,145 L1397,116 L1382,163 Z M841,313 L793,313 L808,266 L856,266 Z M817,388 L832,341 L793,313 L777,359 Z M1485,295 L1446,266 L1485,238 L1525,266 Z " fill="rgb(240, 224, 255)"/></g></svg>